<mxfile modified="2022-01-04T06:15:14.702Z" host="app.diagrams.net" agent="5.0 (Windows NT 10.0; Win64; x64) AppleWebKit/537.36 (KHTML, like Gecko) Chrome/96.0.4664.110 Safari/537.36" etag="iIFjrg6juNFGJ6jaeBzz" version="16.1.0" type="github">
  <diagram id="WI9T0HZ2pTsCkuznbFz-" name="Page-1">
    <mxGraphModel dx="782" dy="436" grid="1" gridSize="10" guides="1" tooltips="1" connect="1" arrows="1" fold="1" page="1" pageScale="1" pageWidth="1169" pageHeight="827" math="0" shadow="0">
      <root>
        <mxCell id="0" />
        <mxCell id="1" parent="0" />
        <mxCell id="AcxdMaKK0mU5kZiv2lnr-16" style="edgeStyle=orthogonalEdgeStyle;rounded=0;orthogonalLoop=1;jettySize=auto;html=1;strokeColor=#808080;" parent="1" target="AcxdMaKK0mU5kZiv2lnr-4" edge="1">
          <mxGeometry relative="1" as="geometry">
            <Array as="points">
              <mxPoint x="220" y="224" />
              <mxPoint x="220" y="224" />
            </Array>
            <mxPoint x="174" y="224" as="sourcePoint" />
          </mxGeometry>
        </mxCell>
        <mxCell id="AcxdMaKK0mU5kZiv2lnr-17" style="edgeStyle=elbowEdgeStyle;rounded=0;orthogonalLoop=1;jettySize=auto;html=1;entryX=-0.016;entryY=0.49;entryDx=0;entryDy=0;entryPerimeter=0;elbow=vertical;strokeColor=#808080;" parent="1" edge="1">
          <mxGeometry relative="1" as="geometry">
            <mxPoint x="329.02" y="160" as="sourcePoint" />
            <mxPoint x="399.9960000000001" y="160.36" as="targetPoint" />
          </mxGeometry>
        </mxCell>
        <mxCell id="AcxdMaKK0mU5kZiv2lnr-23" style="edgeStyle=elbowEdgeStyle;rounded=0;orthogonalLoop=1;jettySize=auto;html=1;elbow=vertical;strokeColor=#808080;" parent="1" edge="1">
          <mxGeometry relative="1" as="geometry">
            <mxPoint x="580" y="147" as="sourcePoint" />
            <mxPoint x="750" y="147" as="targetPoint" />
            <Array as="points">
              <mxPoint x="638" y="147" />
            </Array>
          </mxGeometry>
        </mxCell>
        <mxCell id="AcxdMaKK0mU5kZiv2lnr-4" value="Channel" style="rounded=0;whiteSpace=wrap;html=1;fillColor=#f5f5f5;strokeColor=none;fontColor=#333333;verticalAlign=top;" parent="1" vertex="1">
          <mxGeometry x="120" y="50" width="240" height="230" as="geometry" />
        </mxCell>
        <mxCell id="juTeedIcPSSgVDFVss3v-1" value="Channel" style="rounded=0;whiteSpace=wrap;html=1;fillColor=none;strokeColor=default;fontColor=#333333;verticalAlign=top;" vertex="1" parent="1">
          <mxGeometry x="480" y="50" width="341" height="232" as="geometry" />
        </mxCell>
        <mxCell id="juTeedIcPSSgVDFVss3v-3" value="" style="shape=image;verticalLabelPosition=bottom;labelBackgroundColor=#ffffff;verticalAlign=top;aspect=fixed;imageAspect=0;image=data:image/svg+xml,PHN2ZyB4bWxuczpjYz0iaHR0cDovL2NyZWF0aXZlY29tbW9ucy5vcmcvbnMjIiB4bWxuczpkYz0iaHR0cDovL3B1cmwub3JnL2RjL2VsZW1lbnRzLzEuMS8iIHhtbG5zOmlua3NjYXBlPSJodHRwOi8vd3d3Lmlua3NjYXBlLm9yZy9uYW1lc3BhY2VzL2lua3NjYXBlIiB4bWxuczpyZGY9Imh0dHA6Ly93d3cudzMub3JnLzE5OTkvMDIvMjItcmRmLXN5bnRheC1ucyMiIHhtbG5zOnNvZGlwb2RpPSJodHRwOi8vc29kaXBvZGkuc291cmNlZm9yZ2UubmV0L0RURC9zb2RpcG9kaS0wLmR0ZCIgeG1sbnM6c3ZnPSJodHRwOi8vd3d3LnczLm9yZy8yMDAwL3N2ZyIgeG1sbnM9Imh0dHA6Ly93d3cudzMub3JnLzIwMDAvc3ZnIiB4bWxuczp4bGluaz0iaHR0cDovL3d3dy53My5vcmcvMTk5OS94bGluayIgdmVyc2lvbj0iMS4xIiBpZD0ic3ZnMTA0Nzg1IiBpbmtzY2FwZTp2ZXJzaW9uPSIwLjkyLjMgKDI0MDU1NDYsIDIwMTgtMDMtMTEpIiBzb2RpcG9kaTpkb2NuYW1lPSJzcWxfMS5zdmciIHg9IjBweCIgeT0iMHB4IiB2aWV3Qm94PSIwIDAgNDEuNDkgNTUuMzIiIHN0eWxlPSJlbmFibGUtYmFja2dyb3VuZDpuZXcgMCAwIDQxLjQ5IDU1LjMyOyIgeG1sOnNwYWNlPSJwcmVzZXJ2ZSI+JiN4YTs8c29kaXBvZGk6bmFtZWR2aWV3IGJvcmRlcmNvbG9yPSIjNjY2NjY2IiBib3JkZXJvcGFjaXR5PSIxIiBmaXQtbWFyZ2luLWJvdHRvbT0iMCIgZml0LW1hcmdpbi1sZWZ0PSIwIiBmaXQtbWFyZ2luLXJpZ2h0PSIwIiBmaXQtbWFyZ2luLXRvcD0iMCIgZ3JpZHRvbGVyYW5jZT0iMTAiIGd1aWRldG9sZXJhbmNlPSIxMCIgaWQ9Im5hbWVkdmlldzEwNDc4NyIgaW5rc2NhcGU6Y3VycmVudC1sYXllcj0ic3ZnMTA0Nzg1IiBpbmtzY2FwZTpjeD0iMjcuNjU4MDc3IiBpbmtzY2FwZTpjeT0iLTUuMjgzNDUyIiBpbmtzY2FwZTpwYWdlb3BhY2l0eT0iMCIgaW5rc2NhcGU6cGFnZXNoYWRvdz0iMiIgaW5rc2NhcGU6d2luZG93LWhlaWdodD0iMTAxNyIgaW5rc2NhcGU6d2luZG93LW1heGltaXplZD0iMSIgaW5rc2NhcGU6d2luZG93LXdpZHRoPSIxOTIwIiBpbmtzY2FwZTp3aW5kb3cteD0iLTgiIGlua3NjYXBlOndpbmRvdy15PSItOCIgaW5rc2NhcGU6em9vbT0iNS4zNTM0MDYyIiBvYmplY3R0b2xlcmFuY2U9IjEwIiBwYWdlY29sb3I9IiNmZmZmZmYiIHNob3dncmlkPSJmYWxzZSI+JiN4YTsJPC9zb2RpcG9kaTpuYW1lZHZpZXc+JiN4YTs8ZyBpZD0iZzEwNDc4MyIgdHJhbnNmb3JtPSJ0cmFuc2xhdGUoLTQ4LjI1OTksLTEuNDQ5ODg4OSkiPiYjeGE7CTx0aXRsZSBpZD0idGl0bGUxMDQ3NjgiPlBhZ2UtMTwvdGl0bGU+JiN4YTsJPGcgaWQ9Imdyb3VwMzYxNi0xIiB0cmFuc2Zvcm09InRyYW5zbGF0ZSg0OC4yNTk5LC02NC42OTA2KSI+JiN4YTsJCTx0aXRsZSBpZD0idGl0bGUxMDQ3NzAiPlNRTCAjMTwvdGl0bGU+JiN4YTsJCTxnIGlkPSJzaGFwZTM2MTctMiIgdHJhbnNmb3JtPSJ0cmFuc2xhdGUoMTguODk5NywtMjIuODk2MSkiPiYjeGE7CQkJPHRpdGxlIGlkPSJ0aXRsZTEwNDc3MiI+U2hlZXQuMzYxNzwvdGl0bGU+JiN4YTsJCQk8cGF0aCBpZD0icGF0aDEwNDc3NCIgaW5rc2NhcGU6Y29ubmVjdG9yLWN1cnZhdHVyZT0iMCIgc3R5bGU9ImZpbGw6IzNGNTc2NTsiIGQ9Ik0zLjYxLDExNi41NmMtMC4xNS0wLjI3LTAuMzctMC40OS0wLjYyLTAuNjUgICAgIGMtMC4yMy0wLjE1LTAuNTMtMC4yNC0wLjg4LTAuMjRjLTAuMzYsMC0wLjcsMC4wOS0wLjk2LDAuMjRjLTAuMjcsMC4xNi0wLjQ4LDAuMzYtMC42NywwLjYzYy0wLjE2LDAuMjctMC4yOCwwLjU2LTAuMzYsMC45MyAgICAgQzAuMDMsMTE3LjgyLDAsMTE4LjE5LDAsMTE4LjU5YzAsMC41MSwwLjA1LDAuOTQsMC4xNywxLjMxYzAuMTEsMC4zNywwLjI2LDAuNjcsMC40NSwwLjljMC4xOCwwLjIzLDAuMzksMC40LDAuNjQsMC41ICAgICBjMC4yNSwwLjExLDAuNTIsMC4xNiwwLjgsMC4xNmMwLjI3LDAsMC41Mi0wLjA1LDAuNzUtMC4xNmMwLjI1LTAuMSwwLjQ3LTAuMjksMC42NS0wLjUyYzAuMi0wLjIxLDAuMzUtMC41MSwwLjQ2LTAuODggICAgIGMwLjEtMC4zNSwwLjE3LTAuNzYsMC4xNy0xLjI2YzAtMC40LTAuMDMtMC43OS0wLjEyLTEuMTNDMy44OSwxMTcuMTQsMy43OCwxMTYuODIsMy42MSwxMTYuNTZ6Ii8+JiN4YTsJCTwvZz4mI3hhOwkJPGcgaWQ9InNoYXBlMzYxOC00Ij4mI3hhOwkJCTx0aXRsZSBpZD0idGl0bGUxMDQ3NzciPlNoZWV0LjM2MTg8L3RpdGxlPiYjeGE7CQkJPHBhdGggaWQ9InBhdGgxMDQ3NzkiIGlua3NjYXBlOmNvbm5lY3Rvci1jdXJ2YXR1cmU9IjAiIHN0eWxlPSJmaWxsOiMzRjU3NjU7IiBkPSJNMjAuNzMsNjYuMTRDOS4yOCw2Ni4xNCwwLDcwLjA1LDAsNzQuMzR2MzguNzkgICAgIGMwLDQuMjksOS4yOCw4LjMzLDIwLjczLDguMzNjMTEuNDYsMCwyMC43Ni0zLjg2LDIwLjc2LTguMTVWNzQuNTZDNDEuNDksNzAuMjUsMzIuMTksNjYuMTQsMjAuNzMsNjYuMTR6IE0xNC41MSw5OC42NiAgICAgYy0wLjA1LDAuMjgtMC4xNSwwLjU1LTAuMywwLjgxYy0wLjE0LDAuMjctMC4zMywwLjUyLTAuNTcsMC43NWMtMC4yMywwLjIzLTAuNTMsMC40NS0wLjksMC42M2MtMC4zNSwwLjE5LTAuNzgsMC4zMi0xLjI2LDAuNDIgICAgIGMtMC41LDAuMTItMS4wNiwwLjE3LTEuNzEsMC4xN2MtMC4zNSwwLTAuNjgtMC4wMi0xLTAuMDdjLTAuMzItMC4wMy0wLjYtMC4wNy0wLjg4LTAuMTNjLTAuMjctMC4wNS0wLjUyLTAuMTItMC43My0wLjE5ICAgICBjLTAuMjQtMC4wNi0wLjQyLTAuMTUtMC41OS0wLjIxdi0zLjA1YzAuMTksMC4xNCwwLjQsMC4yOSwwLjY1LDAuNDJjMC4yNCwwLjEzLDAuNSwwLjI1LDAuNzcsMC4zNmMwLjI2LDAuMSwwLjU1LDAuMTksMC44NSwwLjI1ICAgICBjMC4yOCwwLjA5LDAuNTYsMC4xMiwwLjg0LDAuMTJjMC4yNCwwLDAuNDQtMC4wMywwLjU5LTAuMDhjMC4xNS0wLjA0LDAuMjYtMC4xLDAuMzUtMC4xOWMwLjA4LTAuMDYsMC4xNC0wLjE0LDAuMTgtMC4yMyAgICAgYzAuMDMtMC4xLDAuMDUtMC4xOCwwLjA1LTAuMjhjMC0wLjE3LTAuMDUtMC4zMi0wLjE0LTAuNDVjLTAuMDgtMC4xMi0wLjItMC4yMy0wLjM1LTAuMzNjLTAuMTYtMC4xLTAuMzQtMC4yLTAuNTQtMC4yOSAgICAgQzkuNiw5Nyw5LjM1LDk2LjkxLDkuMSw5Ni44MWMtMC40OC0wLjE4LTAuOS0wLjQtMS4yNS0wLjY1Yy0wLjMzLTAuMjUtMC42MS0wLjUtMC44My0wLjc4Yy0wLjIyLTAuMjgtMC4zNy0wLjYtMC40Ny0wLjkxICAgICBjLTAuMS0wLjMyLTAuMTUtMC42NS0wLjE1LTFjMC0wLjU1LDAuMTItMS4wMywwLjM0LTEuNDhjMC4yMS0wLjQzLDAuNTMtMC44LDAuOTEtMS4xMmMwLjQtMC4yOSwwLjg4LTAuNTQsMS40My0wLjY5ICAgICBjMC41NS0wLjE3LDEuMTctMC4yNSwxLjg1LTAuMjVjMC4zOCwwLDAuNzEsMC4wMSwxLjAzLDAuMDNjMC4zMSwwLjAzLDAuNiwwLjA2LDAuODUsMC4xMmMwLjI1LDAuMDMsMC40NiwwLjA4LDAuNjYsMC4xMyAgICAgYzAuMiwwLjA1LDAuMzgsMC4xLDAuNTMsMC4xNXYyLjgzYy0wLjE2LTAuMDktMC4zMy0wLjE5LTAuNTUtMC4yN2MtMC4yLTAuMS0wLjQxLTAuMTgtMC42NC0wLjI1Yy0wLjI0LTAuMDgtMC40OS0wLjEzLTAuNzUtMC4xOCAgICAgYy0wLjI3LTAuMDUtMC41NC0wLjA3LTAuODItMC4wN2MtMC4zNiwwLTAuNjYsMC4wNy0wLjksMC4yYy0wLjIzLDAuMTUtMC4zNSwwLjMzLTAuMzUsMC41OGMwLDAuMTIsMC4wNCwwLjI0LDAuMDksMC4zNCAgICAgczAuMTMsMC4xOCwwLjIzLDAuMjZjMC4xMiwwLjA5LDAuMjcsMC4xOSwwLjQ1LDAuMjdjMC4xOCwwLjEsMC40LDAuMiwwLjY2LDAuM2MwLjQ3LDAuMTgsMC44OSwwLjM4LDEuMjksMC42ICAgICBjMC4zOCwwLjIxLDAuNzEsMC40NiwwLjk5LDAuNzRjMC4yOSwwLjI3LDAuNSwwLjU5LDAuNjUsMC45NGMwLjE3LDAuMzUsMC4yNSwwLjc2LDAuMjUsMS4yMyAgICAgQzE0LjYxLDk4LjEzLDE0LjU3LDk4LjM5LDE0LjUxLDk4LjY2eiBNMjIuOTQsMTA0LjA2bC0yLjQ1LTIuNjJjLTAuNzEtMC4wNS0xLjM4LTAuMjItMS45OS0wLjQ5Yy0wLjY0LTAuMjgtMS4xOC0wLjY1LTEuNjUtMS4xMyAgICAgYy0wLjQ3LTAuNDgtMC44My0xLjA1LTEuMTEtMS43M2MtMC4yNy0wLjY2LTAuNC0xLjQzLTAuNC0yLjI2YzAtMC44OCwwLjEzLTEuNjgsMC40MS0yLjRjMC4yOC0wLjczLDAuNjctMS4zNCwxLjE4LTEuODYgICAgIGMwLjUtMC41MywxLjEtMC45MywxLjgtMS4yMWMwLjctMC4yOSwxLjQ4LTAuNDQsMi4zMS0wLjQ0YzAuOCwwLDEuNTMsMC4xNCwyLjIxLDAuNGMwLjY3LDAuMjcsMS4yNSwwLjY1LDEuNzMsMS4xNSAgICAgYzAuNDksMC40OSwwLjg3LDEuMDgsMS4xNSwxLjhjMC4yNywwLjcsMC40LDEuNSwwLjQsMi4zOGMwLDAuNjMtMC4wNywxLjIzLTAuMjMsMS43OGMtMC4xNSwwLjU1LTAuMzcsMS4wNS0wLjY1LDEuNDggICAgIGMtMC4yNywwLjQ1LTAuNiwwLjgzLTAuOTcsMS4xNmMtMC4zOCwwLjM0LTAuNzgsMC42LTEuMjMsMC44bDMuNzUsMy4yaC00LjI2VjEwNC4wNnogTTM1LjMsMTAxLjI0aC03LjE5VjkwLjExaDMuMzZ2OC41aDMuODMgICAgIFYxMDEuMjR6IE0yMC43MSw3OC4xNmMtOC4xNSwwLTE0Ljc3LTIuMDEtMTQuNzctNC41MmMwLTIuNTEsNi42Mi00LjUyLDE0Ljc3LTQuNTJjOC4xNywwLDE0Ljc5LDIuMDEsMTQuNzksNC41MiAgICAgQzM1LjUsNzYuMTUsMjguODgsNzguMTYsMjAuNzEsNzguMTZ6Ii8+JiN4YTsJCTwvZz4mI3hhOwk8L2c+JiN4YTs8L2c+JiN4YTs8L3N2Zz4=;" vertex="1" parent="1">
          <mxGeometry x="180" y="120" width="41" height="55" as="geometry" />
        </mxCell>
        <mxCell id="juTeedIcPSSgVDFVss3v-4" value="Exiting resource" style="text;html=1;strokeColor=none;fillColor=none;align=center;verticalAlign=middle;whiteSpace=wrap;rounded=0;" vertex="1" parent="1">
          <mxGeometry x="180" y="40" width="90" height="30" as="geometry" />
        </mxCell>
        <mxCell id="juTeedIcPSSgVDFVss3v-8" value="" style="verticalLabelPosition=bottom;html=1;verticalAlign=top;align=center;strokeColor=none;fillColor=#00BEF2;shape=mxgraph.azure.storage_queue;dashed=1;" vertex="1" parent="1">
          <mxGeometry x="520" y="125" width="50" height="45" as="geometry" />
        </mxCell>
        <mxCell id="juTeedIcPSSgVDFVss3v-9" value="" style="sketch=0;outlineConnect=0;fontColor=#232F3E;gradientColor=none;fillColor=#3F8624;strokeColor=none;dashed=0;verticalLabelPosition=bottom;verticalAlign=top;align=center;html=1;fontSize=12;fontStyle=0;aspect=fixed;pointerEvents=1;shape=mxgraph.aws4.iot_analytics_data_store;" vertex="1" parent="1">
          <mxGeometry x="760" y="108.5" width="54" height="78" as="geometry" />
        </mxCell>
      </root>
    </mxGraphModel>
  </diagram>
</mxfile>
